<?xml version="1.0" encoding="UTF-8" standalone="no"?>
<svg
   xmlns:dc="http://purl.org/dc/elements/1.1/"
   xmlns:cc="http://creativecommons.org/ns#"
   xmlns:rdf="http://www.w3.org/1999/02/22-rdf-syntax-ns#"
   xmlns:svg="http://www.w3.org/2000/svg"
   xmlns="http://www.w3.org/2000/svg"
   xmlns:xlink="http://www.w3.org/1999/xlink"
   id="svg897"
   xml:space="preserve"
   viewBox="0 0 650 125"
   version="1.1"
   enable-background="new 0 0 1224 792"
   height="125"
   width="650"><defs
   id="defs901" /><metadata
   id="metadata873"><rdf:RDF><cc:Work
       rdf:about=""><dc:format>image/svg+xml</dc:format><dc:type
         rdf:resource="http://purl.org/dc/dcmitype/StillImage" /><dc:title></dc:title></cc:Work></rdf:RDF></metadata>
  <path
   style="fill:#ffffff;fill-opacity:0;stroke-width:0.88750821"
   d="m 28.746351,24.656793 c -12.38784,0 -22.4282201,10.040381 -22.4282201,22.428221 v 46.674058 c 0,12.386948 10.0403801,22.428218 22.4282201,22.428218 h 46.674058 c 12.386953,0 22.428225,-10.04216 22.428225,-22.428218 V 47.085014 c 0,-12.38784 -10.04216,-22.428221 -22.428225,-22.428221 H 28.746351"
   class="logo-background"
   id="accessmap-logo-background" />
  
  <path
   transform="matrix(0.88750823,0,0,0.88750823,17.266928,-93.29582)"
   xlink:href="#accessmap-logo-head-3"
   style="fill:#ffffff;fill-opacity:1;stroke:none;stroke-width:3"
   id="path1787"
   d="m 54.966797,105.12109 c -23.940855,0 -43.642578,19.70062 -43.642578,43.64258 0,0 -2.5e-5,13.38869 0,26.77735 1.2e-5,6.69432 9e-6,13.38943 0,18.41015 -5e-6,2.51036 1.3e-5,4.60209 0,6.06641 -1.4e-5,1.46432 0,2.30078 0,2.30078 0,23.93921 19.696808,43.64648 43.642578,43.64648 h 53.550783 c 20.7393,0 38.23792,-14.803 42.56836,-34.3125 7.45323,5.59766 16.46815,8.95508 25.92187,8.95508 10.09544,0 18.14977,-2.42985 23.8711,-5.54101 3.42426,-1.86206 5.88954,-3.9115 7.61914,-5.49805 7.875,6.87132 17.91095,11.03906 28.48047,11.03906 10.09543,0 18.14915,-2.43048 23.87109,-5.54297 2.83005,-1.53942 5.27435,-3.43406 7.01953,-4.94531 7.78615,6.7201 17.99084,10.49024 28.81836,10.49024 11.21007,0 20.0362,-2.86814 26.09766,-6.12305 2.02819,-1.08911 3.31128,-2.12344 4.73828,-3.16797 7.44556,5.90416 17.12247,9.29102 27.49414,9.29102 9.30827,0 18.21899,-2.73488 25.04492,-8.21485 7.22163,5.20422 16.26374,8.21485 25.95508,8.21485 8.67358,0 16.93128,-2.47143 23.54297,-7.20508 a 13.665727,13.665727 0 0 0 11.17773,5.8164 h 12.11914 a 13.665727,13.665727 0 0 0 12.6211,-8.45898 13.665727,13.665727 0 0 0 12.6289,8.45898 h 12.1211 a 13.665727,13.665727 0 0 0 12.6875,-8.60547 13.665727,13.665727 0 0 0 12.68164,8.60547 h 12 a 13.665727,13.665727 0 0 0 10.73046,-5.20703 c 6.21164,4.40672 13.57249,6.5957 21.08008,6.59571 5.05325,0 9.50322,-1.13831 13.39844,-2.68946 a 13.665727,13.665727 0 0 0 5.79102,1.29883 h 11.74023 a 13.665727,13.665727 0 0 0 2.37695,-0.2207 v 10.04297 a 13.665727,13.665727 0 0 0 13.66407,13.66406 h 12.11914 a 13.665727,13.665727 0 0 0 13.66406,-13.66406 v -9.16211 c 2.34172,0.43316 4.72491,0.73047 7.16601,0.73047 12.38916,0 23.82496,-5.12867 31.41602,-13.57227 7.59106,-8.4436 11.4082,-19.72043 11.4082,-31.52734 0,-11.77689 -3.78646,-23.01183 -11.36718,-31.37891 -7.58072,-8.36708 -18.95489,-13.34375 -31.20704,-13.34375 -5.10475,0 -10.14634,1.05279 -14.86328,2.92773 a 13.665727,13.665727 0 0 0 -6.72656,-1.79101 h -11.60937 a 13.665727,13.665727 0 0 0 -13.00782,9.53515 c -6.4726,-6.37815 -16.89384,-10.66992 -29.29297,-10.66992 -13.19955,0 -23.36874,4.50122 -29.24609,7.85742 a 13.665727,13.665727 0 0 0 -2.89062,2.22852 c -5.88712,-6.14282 -15.02564,-10.08789 -24.67383,-10.08789 -6.68997,0 -13.11165,2.11198 -18.5957,5.64062 -5.43396,-3.56864 -11.87342,-5.64062 -18.26368,-5.64062 -4.38254,0 -8.40491,0.87065 -12.07812,2.29492 a 13.665727,13.665727 0 0 0 -5.47266,-1.1582 h -12.11914 a 13.665727,13.665727 0 0 0 -10.86719,5.39844 c -5.97689,-3.71284 -13.79235,-6.53516 -23.22265,-6.53516 -7.90436,0 -15.84668,2.13799 -22.47656,7.30664 -0.63019,0.49129 -1.14636,1.16325 -1.74024,1.71875 -6.18629,-4.93176 -15.31639,-9.02539 -26.7832,-9.02539 -7.90691,0 -15.85038,2.13805 -22.48047,7.30859 -2.1282,1.6597 -3.95348,3.79919 -5.59961,6.11914 -7.68361,-8.20236 -18.48596,-13.42773 -30.5,-13.42773 -10.65367,0 -20.67643,4.15214 -28.53711,10.95117 -1.70477,-1.58771 -4.02316,-3.49834 -7.19531,-5.24609 -5.62399,-3.09865 -13.74543,-5.70508 -23.98828,-5.70508 -10.56275,0 -20.79902,4.14823 -28.82813,11.0957 -4.66596,-3.90724 -15.45303,-11.0957 -31.13086,-11.0957 -9.44252,0 -18.59739,3.35407 -26.1914,8.99609 -4.19161,-19.69076 -21.81458,-34.66211 -42.67969,-34.66211 0,0 -13.387663,5e-5 -26.775392,0 -6.693865,-2e-5 -13.38775,-2e-5 -18.408204,0 -2.510227,1e-5 -4.601991,-2e-5 -6.066406,0 -0.732208,2e-5 -1.306729,-2e-5 -1.699219,0 -0.392489,2e-5 -0.601562,0 -0.601562,0 z m -1.607422,30.5 c -0.01792,0.01 -0.03094,0.0254 -0.04883,0.0352 -0.0403,0.0224 -0.08478,0.038 -0.125,0.0606 z m 58.517575,11.66602 0.1211,0.14844 c -0.0314,-0.0399 -0.07,-0.0735 -0.10157,-0.11328 -0.009,-0.0106 -0.0109,-0.0246 -0.0195,-0.0352 z m -76.056638,7.26562 c -0.02577,0.0464 -0.04274,0.0981 -0.06836,0.14454 -0.01168,0.0217 -0.03137,0.0369 -0.04297,0.0586 z m 80.523438,3.33399 v 16.47656 c -1.26781,-1.52882 -2.74362,-2.79621 -4.39063,-3.83789 0.74473,-0.94943 1.5353,-1.86342 2.0918,-2.96289 1.48253,-2.929 2.00723,-6.14214 1.86133,-9.3125 0.15308,-0.11241 0.28759,-0.24679 0.4375,-0.36328 z m 266.22852,9.19336 0.15039,0.14648 c -0.0528,-0.0527 -0.10356,-0.0848 -0.15625,-0.13672 z m 51.00976,0 0.15039,0.14648 c -0.0528,-0.0528 -0.10349,-0.0848 -0.15625,-0.13672 z m -357.847655,0.25586 c 2.916188,0 5.185773,1.24848 6.8125,3.3125 L 82.433594,170.5 c 1.324427,1.72859 2.982322,3.104 4.77539,4.25977 -0.967258,1.24558 -1.808638,2.60229 -2.443359,4.08593 a 13.665727,13.665727 0 0 0 -0.0039,0.01 c -0.16412,0.38435 -0.15179,0.41093 -0.246094,0.67383 -0.10759,0.22871 -0.09683,0.15281 -0.308594,0.71484 l 0.05469,-0.14062 c -0.509537,1.30823 -1.357782,2.49925 -2.441407,3.43164 a 13.665727,13.665727 0 0 0 -0.0078,0.008 13.665727,13.665727 0 0 0 -0.002,0 c -1.563075,1.34121 -3.356551,2.08203 -5.630859,2.08203 -5.084572,0 -8.66211,-3.57754 -8.66211,-8.66211 0,-1.61727 0.376488,-2.93674 1.076172,-4.19531 l -0.115234,0.20508 c 0.733429,-1.26756 1.232316,-2.62482 1.644531,-3.99805 0.514327,-0.23779 1.067069,-0.35765 1.5625,-0.64453 l -0.166016,0.0957 c 1.262796,-0.70782 2.590906,-1.08984 4.214844,-1.08984 z m 561.314455,0.6289 c 2.55049,0 2.96835,0.47363 3.70703,1.32618 0.73868,0.85254 1.69922,2.77978 1.69922,6.09179 0,3.31201 -0.97075,5.30851 -1.73438,6.19727 -0.76363,0.88875 -1.16956,1.34765 -3.67187,1.34765 -2.49439,0 -2.89643,-0.4565 -3.66016,-1.3457 -0.76373,-0.8892 -1.73633,-2.8873 -1.73633,-6.19922 0,-3.31192 0.96044,-5.23882 1.69922,-6.09179 0.73879,-0.85298 1.15465,-1.32618 3.69727,-1.32618 z m -458.65039,0.25196 c 6.04494,0 6.23717,1.29772 8.25781,3.31836 a 13.665727,13.665727 0 0 0 6.38477,3.58593 c -0.002,0.17448 -0.0274,0.34046 -0.0274,0.51563 0,0.0776 0.0231,0.14709 0.0234,0.22461 a 13.665727,13.665727 0 0 0 -6.75391,4.3125 c 0,0 -1.88779,2.7539 -7.76562,2.7539 -2.38793,0 -3.19683,-0.55911 -4.05469,-1.49609 -0.85786,-0.93698 -1.83984,-2.72971 -1.83984,-6.17383 0,-6.2541 2.10281,-7.04101 5.77539,-7.04101 z m 59.95898,0 c 6.05923,0 6.25164,1.30046 8.26953,3.31836 a 13.665727,13.665727 0 0 0 6.38672,3.58593 c -0.001,0.13373 -0.0391,0.2546 -0.0391,0.38868 0,0.11969 0.0285,0.23202 0.0293,0.35156 a 13.665727,13.665727 0 0 0 -6.7461,4.30469 c 0,0 -1.90669,2.76171 -7.76953,2.76171 -2.38793,0 -3.20395,-0.56093 -4.06445,-1.5 -0.86051,-0.93906 -1.8418,-2.73003 -1.8418,-6.16992 0,-6.24689 2.11936,-7.04101 5.77539,-7.04101 z m 100.02149,19.79492 c 0.0823,0.0449 0.14127,0.056 0.22265,0.0996 0.061,0.0308 0.15104,0.097 0.21094,0.12695 z" /><rect
   ry="23.703215"
   y="16.540234"
   x="43.726345"
   height="90.954239"
   width="90.954239"
   id="rect1569"
   style="opacity:1;vector-effect:none;fill:#ffffff;fill-opacity:1;stroke:none;stroke-width:2.6625247;stroke-linecap:butt;stroke-linejoin:miter;stroke-miterlimit:4;stroke-dasharray:none;stroke-dashoffset:0;stroke-opacity:1" /><g
   transform="matrix(0.88750823,0,0,0.88750823,36.560253,7.0294705)"
   style="fill:#0d47a1;stroke:none;stroke-width:3"
   id="g890"
   class="logo-access-group">
    <path
   style="stroke:none"
   d="m 88.992,28.817 c 0,3.717 -3.013,6.728 -6.728,6.728 -3.716,0 -6.728,-3.011 -6.728,-6.728 0,-3.716 3.012,-6.727 6.728,-6.727 3.715,0 6.728,3.011 6.728,6.727"
   class="logo-access"
   id="accessmap-logo-head" />
    <path
   style="stroke:none"
   d="M 75.338,51.135 C 73.841,51.064 72.452,50.337 71.541,49.148 67.449,43.956 61.149,40.63 53.997,40.63 c -3.978,0 -7.676,1.028 -10.898,2.834 -1.587,0.919 -3.545,0.913 -5.126,-0.017 -1.58,-0.93 -2.538,-2.638 -2.506,-4.471 0.033,-1.834 1.049,-3.508 2.661,-4.381 4.693,-2.631 10.127,-4.134 15.869,-4.134 10.324,0 19.585,4.85 25.53,12.393 1.263,1.557 1.493,3.71 0.588,5.498 -0.905,1.788 -2.776,2.878 -4.777,2.783"
   class="logo-access"
   id="accessmap-logo-arm" />
    <path
   style="stroke:none"
   d="m 54.442,96.414 c -17.886,0 -32.496,-14.608 -32.496,-32.493 0,-5.703 1.484,-11.1 4.08,-15.772 0.865,-1.621 2.537,-2.65 4.374,-2.691 1.837,-0.04 3.553,0.913 4.489,2.495 0.935,1.582 0.944,3.545 0.024,5.135 -1.784,3.209 -2.798,6.881 -2.798,10.833 0,12.39 9.937,22.327 22.327,22.327 5.577,0 10.618,-2.021 14.528,-5.376 h 0.003 c 2.765,-2.373 4.941,-5.408 6.282,-8.851 0.645,-1.712 2.16,-2.946 3.968,-3.23 1.807,-0.285 3.628,0.424 4.768,1.856 1.139,1.432 1.422,3.366 0.739,5.063 -1.957,5.025 -5.123,9.434 -9.139,12.879 -5.679,4.873 -13.1,7.825 -21.149,7.825"
   class="logo-access"
   id="accessmap-logo-wheel" />
    <path
   style="stroke:none"
   d="M 93.121,95.571 C 91.445,95.604 89.86,94.809 88.885,93.445 L 76.248,76.294 c -1.132,-1.459 -1.383,-3.417 -0.658,-5.115 0.726,-1.697 2.315,-2.868 4.152,-3.059 1.836,-0.19 3.632,0.631 4.69,2.144 l 12.639,17.151 c 1.156,1.523 1.36,3.567 0.526,5.289 -0.834,1.722 -2.564,2.83 -4.476,2.867"
   class="logo-access"
   id="accessmap-logo-leg" />
    <path
   style="stroke:none"
   d="M 33.228,119.26 C 16.721,119.26 3.25,105.78 3.25,89.277 c 2e-4,0 2e-4,-53.554 2e-4,-53.554 0,-16.507 13.472,-29.978 29.978,-29.978 0,-4e-4 53.552,-4e-4 53.552,-4e-4 16.51,0 29.98,13.471 29.98,29.978 v 53.554 c 0,16.503 -13.47,29.983 -29.98,29.983 h -53.552 m 0,-8.49 h 53.552 c 11.92,0 21.49,-9.57 21.49,-21.493 v -53.554 c 0,-11.921 -9.57,-21.492 -21.49,-21.492 h -53.552 c -11.921,0 -21.491,9.571 -21.491,21.492 v 53.554 c 0,11.923 9.571,21.493 21.491,21.493"
   class="logo-access"
   id="accessmap-logo-outline" />
    <path
   style="stroke:none"
   id="path881"
   d="m 179.26,84.813 c -1.77,1.768 -7.96,9.09 -23.99,9.09 -16.16,0 -30.3,-12.12 -30.3,-31.308 0,-19.318 14.77,-31.184 30.68,-31.184 16.03,0 22.6,7.827 23.23,8.585 0,0 -4.3,8.837 -4.3,8.837 -2.02,-2.02 -7.32,-7.322 -17.92,-7.322 -10.61,0 -19.44,8.08 -19.44,20.705 0,12.624 7.95,21.335 19.56,21.335 11.75,0 18.18,-7.574 18.18,-7.574 0,0 4.3,8.836 4.3,8.836"
   class="logo-access" />
    <path
   style="stroke:none"
   id="path883"
   d="m 239.22,84.813 c -1.76,1.768 -7.95,9.09 -23.98,9.09 -16.16,0 -30.3,-12.12 -30.3,-31.308 0,-19.318 14.77,-31.184 30.67,-31.184 16.04,0 22.6,7.827 23.23,8.585 l -4.29,8.837 c -2.02,-2.02 -7.32,-7.322 -17.93,-7.322 -10.6,0 -19.44,8.08 -19.44,20.705 0,12.624 7.96,21.335 19.57,21.335 11.74,0 18.18,-7.574 18.18,-7.574 0,0 4.29,8.836 4.29,8.836"
   class="logo-access" />
    <path
   style="stroke:none"
   d="m 292.25,57.291 c -0.13,-6.691 -5.18,-17.168 -17.3,-17.168 -11.99,0 -17.29,9.972 -17.67,17.168 h 34.97 m 11.11,8.08 h -46.21 c 0.63,11.868 8.21,19.064 19.32,19.064 11.23,0 18.43,-6.06 19.82,-6.944 l 5.05,6.944 c -0.76,0.631 -8.46,9.469 -26.39,9.469 -17.8,0 -30.05,-12.373 -30.05,-31.435 0,-18.939 13.77,-31.058 30.43,-31.058 16.66,0 28.41,11.867 28.41,28.659 0,2.271 -0.38,5.301 -0.38,5.301"
   class="logo-access"
   id="accessmap-logo-e" />
    <path
   style="stroke:none"
   id="path886"
   d="m 349.94,88.601 c -4.16,3.409 -9.72,5.303 -16.66,5.303 -10.1,0 -18.31,-4.167 -23.36,-10.732 0,0 5.81,-7.07 5.81,-7.07 4.54,5.555 12.12,8.585 17.67,8.585 5.56,0 11.49,-2.02 11.49,-8.585 0,-6.565 -9.47,-8.585 -13.51,-9.973 -4.04,-1.389 -5.42,-1.642 -8.2,-3.157 -3.79,-1.893 -9.47,-5.806 -9.47,-14.392 0,-11.109 9.59,-17.169 20.2,-17.169 10.6,0 16.66,3.786 20.45,7.828 0,0 -5.05,7.448 -5.05,7.448 -3.53,-3.661 -9.34,-6.44 -15.15,-6.44 -5.81,0 -9.59,2.527 -9.59,7.449 0,4.925 5.8,7.071 11.74,8.964 3.28,1.136 5.55,1.895 8.08,2.905 2.4,1.009 5.17,2.524 6.94,4.291 2.27,2.146 4.8,5.681 4.8,11.11 0,5.808 -2.27,10.353 -6.19,13.635"
   class="logo-access" />
    <path
   style="stroke:none"
   id="path888"
   d="m 400.95,88.601 c -4.17,3.409 -9.72,5.303 -16.67,5.303 -10.1,0 -18.3,-4.167 -23.35,-10.732 0,0 5.8,-7.07 5.8,-7.07 4.55,5.555 12.12,8.585 17.68,8.585 5.55,0 11.49,-2.02 11.49,-8.585 0,-6.565 -9.47,-8.585 -13.51,-9.973 -4.04,-1.389 -5.43,-1.642 -8.21,-3.157 -3.78,-1.893 -9.47,-5.806 -9.47,-14.392 0,-11.109 9.6,-17.169 20.2,-17.169 10.61,0 16.67,3.786 20.46,7.828 0,0 -5.05,7.448 -5.05,7.448 -3.54,-3.661 -9.35,-6.44 -15.15,-6.44 -5.81,0 -9.6,2.527 -9.6,7.449 0,4.925 5.81,7.071 11.74,8.964 3.28,1.136 5.56,1.895 8.08,2.905 2.4,1.009 5.18,2.524 6.95,4.291 2.27,2.146 4.79,5.681 4.79,11.11 0,5.808 -2.27,10.353 -6.18,13.635"
   class="logo-access" />
  </g><g
   transform="matrix(0.88750823,0,0,0.88750823,36.560253,7.0294705)"
   style="fill:#448aff;stroke:none;stroke-width:3"
   id="g895"
   class="logo-map-group">
    <path
   style="stroke:none"
   d="m 505.86,92.515 h -12 V 57.543 c 0,-6.942 -1.26,-16.158 -10.98,-16.158 -9.59,0 -14.39,9.216 -14.39,19.947 V 92.515 H 456.37 V 57.543 c 0,-8.836 -2.15,-16.158 -10.86,-16.158 -9.59,0 -14.39,9.216 -14.39,19.947 V 92.515 H 419 V 32.547 h 12.12 c 0,0 -0.13,9.469 -0.13,9.469 h 0.38 c 2.78,-5.555 9.34,-10.605 17.3,-10.605 8.83,0 15.02,4.04 17.8,11.866 4.04,-7.574 10.6,-11.866 19.06,-11.866 16.03,0 20.33,11.741 20.33,24.745 v 36.359"
   class="logo-map"
   id="accessmap-logo-m" />
    <path
   style="stroke:none"
   d="m 556.61,63.731 c 0,0 -14.01,0.883 -14.01,0.883 -9.72,0.504 -13.64,4.67 -13.64,10.352 0,5.681 4.42,10.353 12.37,10.353 7.83,0 13.01,-5.303 15.28,-8.711 V 63.731 m 11.99,28.783 h -11.74 l -0.12,-7.573 c -2.4,2.523 -8.08,8.963 -19.07,8.963 -11.11,0 -20.7,-6.945 -20.7,-18.558 0,-11.743 9.59,-17.675 23.48,-18.308 l 16.03,-0.63 v -2.399 c 0,-9.09 -6.18,-13.635 -14.89,-13.635 -8.71,0 -16.04,3.914 -18.06,5.177 0,0 -3.66,-8.08 -3.66,-8.08 4.42,-2.524 12.5,-6.059 22.47,-6.059 9.98,0 15.79,2.776 19.82,6.817 4.04,4.167 6.44,9.215 6.44,19.442 v 34.843"
   class="logo-map"
   id="accessmap-logo-a" />
    <path
   style="stroke:none"
   d="m 615.31,41.259 c -11.99,0 -19.06,9.088 -19.06,21.082 0,11.994 7.07,21.21 19.06,21.21 12,0 19.07,-9.216 19.07,-21.21 0,-11.994 -7.07,-21.082 -19.07,-21.082 m 2.28,52.645 c -9.47,0 -16.42,-4.04 -20.71,-10.732 l -0.12,-0.126 V 116 H 584.64 V 32.547 h 11.61 v 9.468 h 0.25 c 5.31,-7.069 12.5,-10.604 21.34,-10.604 17.67,0 28.91,13.256 28.91,31.058 0,17.8 -11.36,31.435 -29.16,31.435"
   class="logo-map"
   id="accessmap-logo-p" />
  </g>
</svg>