<?xml version="1.0" encoding="UTF-8" standalone="no"?>
<svg
   xmlns:dc="http://purl.org/dc/elements/1.1/"
   xmlns:cc="http://creativecommons.org/ns#"
   xmlns:rdf="http://www.w3.org/1999/02/22-rdf-syntax-ns#"
   xmlns:svg="http://www.w3.org/2000/svg"
   xmlns="http://www.w3.org/2000/svg"
   xmlns:sodipodi="http://sodipodi.sourceforge.net/DTD/sodipodi-0.dtd"
   xmlns:inkscape="http://www.inkscape.org/namespaces/inkscape"
   id="svg2"
   x="0px"
   y="0px"
   version="1.1"
   width="48"
   viewBox="0 0 48.00024 47.999639"
   height="48"
   xml:space="preserve"
   enable-background="new 0 0 1224 792"
   inkscape:version="0.91 r13725"
   sodipodi:docname="cane-user.svg"><sodipodi:namedview
     pagecolor="#ffffff"
     bordercolor="#666666"
     borderopacity="1"
     objecttolerance="10"
     gridtolerance="10"
     guidetolerance="10"
     inkscape:pageopacity="0"
     inkscape:pageshadow="2"
     inkscape:window-width="1920"
     inkscape:window-height="1017"
     id="namedview4244"
     showgrid="true"
     inkscape:zoom="11.326074"
     inkscape:cx="29.062123"
     inkscape:cy="20.990099"
     inkscape:window-x="0"
     inkscape:window-y="30"
     inkscape:window-maximized="1"
     inkscape:current-layer="svg2"
     showguides="true"
     inkscape:object-paths="false"
     inkscape:snap-nodes="true"
     inkscape:object-nodes="true"
     inkscape:snap-grids="false"
     inkscape:snap-to-guides="true"
     inkscape:snap-bbox="true"
     inkscape:snap-object-midpoints="false"><inkscape:grid
       type="xygrid"
       id="grid5028" /></sodipodi:namedview><metadata
     id="metadata16"><rdf:RDF><cc:Work
         rdf:about=""><dc:format>image/svg+xml</dc:format><dc:type
           rdf:resource="http://purl.org/dc/dcmitype/StillImage" /><dc:title></dc:title></cc:Work></rdf:RDF></metadata><defs
     id="defs14" /><path
     style="fill:#000000;fill-opacity:1"
     d="M36.696052 18.665801C34.976876 19.00463 32.533096 19.570389 31.382023 17.851202C30.723149 16.868363 30.27164 15.7165 29.892123 14.526294C30.723931 13.152196 30.731756 11.201385 29.960983 9.885976C28.654191 7.6542415 26.162677 7.377231 23.98495 8.3311175C18.39313 10.778044 15.165274 17.538196 13.867872 23.265428C13.534522 23.923524 13.439838 24.694301 13.723107 25.436909C13.837354 26.11222 14.108102 26.713974 14.48762 27.224957C13.693372 32.601622 12.201124 38.327288 9.2064562 42.853359C7.1883615 45.900474 12.082965 48.725356 14.084627 45.704846C16.791331 41.616984 18.351657 36.757562 19.34388 31.871535C19.789911 32.479549 20.199947 33.109474 20.550512 33.773048C21.849479 36.234842 18.934627 39.256917 17.517501 40.911937C15.162144 43.664045 19.138863 47.67835 21.511435 44.90668C24.204053 41.760967 27.217501 37.925858 26.335612 33.499167C25.791767 30.769753 24.061636 28.423771 22.113185 26.292198C22.139795 26.196728 22.167965 26.103612 22.189875 26.001885C22.845619 22.902341 24.035035 19.270686 26.4616 17.117985C26.97258 18.489735 27.610326 19.786363 28.521168 20.856845C30.591691 23.288903 33.729558 23.298294 36.64441 22.831914C36.64441 22.831914 36.68119 47.445943 36.68119 47.445943C36.68119 47.445943 37.706279 47.499933 37.706279 47.499933C37.706279 47.499933 37.670279 22.650368 37.670279 22.650368C37.710969 22.642568 37.751659 22.634718 37.790004 22.627678C40.387156 22.115912 39.283816 18.156383 36.696054 18.665801C36.696054 18.665801 36.696054 18.665801 36.696054 18.665801"
     id="path7" /><ellipse
     ry="4.2881856"
     rx="4.2881579"
     style="fill:#000000;fill-opacity:1"
     cx="31.927431"
     cy="4.7878866"
     id="circle9" /></svg>