<svg xmlns:rdf="http://www.w3.org/1999/02/22-rdf-syntax-ns#" xmlns="http://www.w3.org/2000/svg" enable-background="new 0 0 1224 792" xml:space="preserve" viewBox="0 0 48 48" height="48" width="48" version="1.1" y="0px" x="0px" xmlns:cc="http://creativecommons.org/ns#" xmlns:dc="http://purl.org/dc/elements/1.1/"><path d="m36.696 18.666c-1.719 0.339-4.163 0.904-5.314-0.815-0.659-0.983-1.11-2.135-1.49-3.325 0.832-1.374 0.84-3.325 0.069-4.64-1.307-2.2318-3.798-2.5088-5.976-1.5549-5.592 2.4469-8.82 9.2069-10.117 14.934-0.333 0.659-0.428 1.429-0.145 2.172 0.114 0.675 0.385 1.277 0.765 1.788-0.795 5.377-2.287 11.102-5.2815 15.628-2.0181 3.047 2.8765 5.872 4.8785 2.852 2.706-4.088 4.267-8.947 5.259-13.833 0.446 0.608 0.856 1.237 1.207 1.901 1.298 2.462-1.616 5.484-3.033 7.139-2.356 2.752 1.621 6.766 3.993 3.995 2.693-3.146 5.707-6.981 4.825-11.408-0.544-2.729-2.274-5.075-4.223-7.207 0.027-0.095 0.055-0.188 0.077-0.29 0.656-3.1 1.845-6.731 4.272-8.884 0.511 1.372 1.148 2.668 2.059 3.739 2.071 2.432 5.209 2.441 8.123 1.975l0.037 24.614 1.025 0.054-0.036-24.85c0.041-0.007 0.082-0.015 0.12-0.022 2.597-0.512 1.494-4.472-1.094-3.962"/><ellipse rx="4.2882" ry="4.2882" cy="4.7879" cx="31.927"/></svg>
