<?xml version="1.0" encoding="UTF-8" standalone="no"?>
<svg
   xmlns:dc="http://purl.org/dc/elements/1.1/"
   xmlns:cc="http://creativecommons.org/ns#"
   xmlns:rdf="http://www.w3.org/1999/02/22-rdf-syntax-ns#"
   xmlns:svg="http://www.w3.org/2000/svg"
   xmlns="http://www.w3.org/2000/svg"
   xmlns:sodipodi="http://sodipodi.sourceforge.net/DTD/sodipodi-0.dtd"
   xmlns:inkscape="http://www.inkscape.org/namespaces/inkscape"
   id="svg2"
   x="0px"
   y="0px"
   version="1.1"
   width="48"
   viewBox="0 0 48.00024 47.999639"
   height="48"
   xml:space="preserve"
   enable-background="new 0 0 1224 792"
   inkscape:version="0.91 r13725"
   sodipodi:docname="wheelchair-powered.svg"><sodipodi:namedview
     pagecolor="#ffffff"
     bordercolor="#666666"
     borderopacity="1"
     objecttolerance="10"
     gridtolerance="10"
     guidetolerance="10"
     inkscape:pageopacity="0"
     inkscape:pageshadow="2"
     inkscape:window-width="1920"
     inkscape:window-height="1017"
     id="namedview4244"
     showgrid="true"
     inkscape:zoom="11.326074"
     inkscape:cx="29.062123"
     inkscape:cy="20.990099"
     inkscape:window-x="0"
     inkscape:window-y="30"
     inkscape:window-maximized="1"
     inkscape:current-layer="svg2"
     showguides="true"
     inkscape:object-paths="false"
     inkscape:snap-nodes="true"
     inkscape:object-nodes="true"
     inkscape:snap-grids="false"
     inkscape:snap-to-guides="true"
     inkscape:snap-bbox="true"
     inkscape:snap-object-midpoints="false"><inkscape:grid
       type="xygrid"
       id="grid5028" /></sodipodi:namedview><metadata
     id="metadata16"><rdf:RDF><cc:Work
         rdf:about=""><dc:format>image/svg+xml</dc:format><dc:type
           rdf:resource="http://purl.org/dc/dcmitype/StillImage" /><dc:title></dc:title></cc:Work></rdf:RDF></metadata><defs
     id="defs14" /><path
     d="m 24.210938,11.101562 c -0.704149,0.03889 -1.284135,0.156051 -1.615235,0.353516 -1.324399,0.789861 -1.75868,1.946966 -1.787109,3.097656 -0.02843,1.150692 -0.02539,7.394532 -0.02539,7.394532 0,0 -0.0052,4.483652 0.199219,4.941406 1.694787,3.795828 7.868223,2.504488 14.310547,1.824219 l 1.568359,-0.294922 1.466797,10.5 c 0.116663,1.504835 0.997025,3.063801 2.501953,2.947265 0.07534,-0.0059 0.151081,0.01958 0.22461,0.0078 1.390915,-0.222672 2.831643,-1.080723 2.720703,-2.509766 l -1.210938,-13.625 c 0.06429,-0.787383 -0.214507,-1.563279 -0.765625,-2.128906 l -0.002,0 c -0.5519,-0.565413 -1.322063,-0.864938 -2.109375,-0.822266 l -8.46875,0.619141 -0.02344,-2.199219 6.382813,-0.509765 a 2.5002499,2.5002499 0 0 0 -0.224609,-4.994141 2.5002499,2.5002499 0 0 0 -0.173828,0.0098 L 31.375,16.177734 c 0.08626,-1.027232 0.02035,-2.401252 -0.767578,-3.347656 -1.045559,-1.255849 -4.28404,-1.845197 -6.396484,-1.728516 z"
     id="path6"
     inkscape:connector-curvature="0"
     style="opacity:1" /><path
     inkscape:connector-curvature="0"
     id="path8"
     d="m 27.866538,10.210034 c 2.526452,0 4.574327,-2.0480884 4.574327,-4.5746825 0,-2.5264519 -2.047875,-4.5747534 -4.574327,-4.5747534 -2.526736,0 -4.574753,2.0483015 -4.574753,4.5747534 0,2.5265941 2.047946,4.5746825 4.574753,4.5746825 0,0 0,0 0,0"
     style="opacity:1" /><path
     inkscape:connector-curvature="0"
     style="stroke:#000000;stroke-width:0;stroke-linejoin:miter;stroke-miterlimit:8;stroke-dasharray:none;opacity:1"
     d="m 8.9117529,8.088031 8.0000401,8.00004 -2.00001,2.00001 4.00002,4.00002 -2.00001,2.00001 4.00002,8.00004 -12.0000601,-8.00004 2.0000101,-2.00001 -6.0000301,-4.00002 2.0000102,-2.00001 -6.00003029,-4.00002 z"
     id="path12"
     sodipodi:nodetypes="cccccccccccc" /><path
     style="color:#000000;font-style:normal;font-variant:normal;font-weight:normal;font-stretch:normal;font-size:medium;line-height:normal;font-family:sans-serif;text-indent:0;text-align:start;text-decoration:none;text-decoration-line:none;text-decoration-style:solid;text-decoration-color:#000000;letter-spacing:normal;word-spacing:normal;text-transform:none;direction:ltr;block-progression:tb;writing-mode:lr-tb;baseline-shift:baseline;text-anchor:start;white-space:normal;clip-rule:nonzero;display:inline;overflow:visible;visibility:visible;opacity:1;isolation:auto;mix-blend-mode:normal;color-interpolation:sRGB;color-interpolation-filters:linearRGB;solid-color:#000000;solid-opacity:1;fill:#000000;fill-opacity:1;fill-rule:nonzero;stroke:none;stroke-width:3.00001502;stroke-linecap:butt;stroke-linejoin:miter;stroke-miterlimit:4;stroke-dasharray:none;stroke-dashoffset:0;stroke-opacity:1;color-rendering:auto;image-rendering:auto;shape-rendering:auto;text-rendering:auto;enable-background:accumulate"
     d="m 29.441553,30.601414 c -1.910607,0 -3.671756,0.666799 -5.076197,1.76954 l 2.857436,2.857437 c 0.645374,-0.391241 1.399098,-0.626957 2.218761,-0.626957 2.375995,0 4.259788,1.883792 4.259788,4.259787 0,0.820136 -0.235298,1.573453 -0.626957,2.218761 l 2.857437,2.857436 c 1.102739,-1.40404 1.76954,-3.165588 1.76954,-5.076197 0,-4.537766 -3.722039,-8.259806 -8.259808,-8.259807 z"
     id="path5183" /><path
     style="color:#000000;font-style:normal;font-variant:normal;font-weight:normal;font-stretch:normal;font-size:medium;line-height:normal;font-family:sans-serif;text-indent:0;text-align:start;text-decoration:none;text-decoration-line:none;text-decoration-style:solid;text-decoration-color:#000000;letter-spacing:normal;word-spacing:normal;text-transform:none;direction:ltr;block-progression:tb;writing-mode:lr-tb;baseline-shift:baseline;text-anchor:start;white-space:normal;clip-rule:nonzero;display:inline;overflow:visible;visibility:visible;opacity:1;isolation:auto;mix-blend-mode:normal;color-interpolation:sRGB;color-interpolation-filters:linearRGB;solid-color:#000000;solid-opacity:1;fill:#000000;fill-opacity:1;fill-rule:nonzero;stroke:none;stroke-width:3.00001502;stroke-linecap:butt;stroke-linejoin:miter;stroke-miterlimit:4;stroke-dasharray:none;stroke-dashoffset:0;stroke-opacity:1;color-rendering:auto;image-rendering:auto;shape-rendering:auto;text-rendering:auto;enable-background:accumulate"
     d="m 22.951287,33.785024 c -1.102857,1.404481 -1.76954,3.165478 -1.76954,5.076197 0,0.314083 0.02194,0.622453 0.05664,0.927739 l -0.992192,0 c -0.804965,-1.876936 -2.675059,-3.205094 -4.834009,-3.205094 -1.083317,10e-7 -2.095493,0.334265 -2.935562,0.904301 l 2.218761,2.218761 c 0.225779,-0.07399 0.463233,-0.123046 0.716801,-0.123047 1.263465,0 2.255871,0.990453 2.255871,2.253918 0,0.253648 -0.05084,0.490836 -0.125,0.7168 l 2.218761,2.218762 c 0.399233,-0.587704 0.675832,-1.26301 0.810551,-1.984386 l 1.613289,0 c 1.404572,2.572218 4.137137,4.3301 7.255895,4.3301 1.910194,0 3.671906,-0.663728 5.076198,-1.765634 l -2.85939,-2.861342 c -0.64506,0.390386 -1.397766,0.626956 -2.216808,0.626956 -2.375995,0 -4.259786,-1.881839 -4.259786,-4.257834 0,-0.819663 0.235715,-1.573387 0.626956,-2.218761 l -2.857436,-2.857436 z"
     id="path5181" /><path
     style="color:#000000;font-style:normal;font-variant:normal;font-weight:normal;font-stretch:normal;font-size:medium;line-height:normal;font-family:sans-serif;text-indent:0;text-align:start;text-decoration:none;text-decoration-line:none;text-decoration-style:solid;text-decoration-color:#000000;letter-spacing:normal;word-spacing:normal;text-transform:none;direction:ltr;block-progression:tb;writing-mode:lr-tb;baseline-shift:baseline;text-anchor:start;white-space:normal;clip-rule:nonzero;display:inline;overflow:visible;visibility:visible;opacity:1;isolation:auto;mix-blend-mode:normal;color-interpolation:sRGB;color-interpolation-filters:linearRGB;solid-color:#000000;solid-opacity:1;fill:#000000;fill-opacity:1;fill-rule:nonzero;stroke:none;stroke-width:3.00001502;stroke-linecap:butt;stroke-linejoin:miter;stroke-miterlimit:4;stroke-dasharray:none;stroke-dashoffset:0;stroke-opacity:1;color-rendering:auto;image-rendering:auto;shape-rendering:auto;text-rendering:auto;enable-background:accumulate"
     d="m 11.062555,38.902237 c -0.57132,0.840171 -0.906254,1.851265 -0.906254,2.935562 0,2.88479 2.371095,5.255884 5.255885,5.255885 1.084295,0 2.095046,-0.334936 2.935562,-0.906254 L 16.13094,43.970621 c -0.226404,0.07449 -0.464521,0.123048 -0.718754,0.123048 -1.263462,0 -2.253917,-0.992408 -2.253917,-2.25587 0,-0.25357 0.04906,-0.491025 0.123047,-0.716801 l -2.218761,-2.218761 z"
     id="path4979" /></svg>