<?xml version="1.0" encoding="UTF-8" standalone="no"?>
<svg
   xmlns:dc="http://purl.org/dc/elements/1.1/"
   xmlns:cc="http://creativecommons.org/ns#"
   xmlns:rdf="http://www.w3.org/1999/02/22-rdf-syntax-ns#"
   xmlns:svg="http://www.w3.org/2000/svg"
   xmlns="http://www.w3.org/2000/svg"
   xmlns:sodipodi="http://sodipodi.sourceforge.net/DTD/sodipodi-0.dtd"
   xmlns:inkscape="http://www.inkscape.org/namespaces/inkscape"
   id="svg2"
   x="0px"
   y="0px"
   version="1.1"
   width="48"
   viewBox="0 0 48.00024 47.999639"
   height="48"
   xml:space="preserve"
   enable-background="new 0 0 1224 792"
   inkscape:version="0.91 r13725"
   sodipodi:docname="wheelchair.svg"><sodipodi:namedview
     pagecolor="#ffffff"
     bordercolor="#666666"
     borderopacity="1"
     objecttolerance="10"
     gridtolerance="10"
     guidetolerance="10"
     inkscape:pageopacity="0"
     inkscape:pageshadow="2"
     inkscape:window-width="1920"
     inkscape:window-height="1017"
     id="namedview4244"
     showgrid="false"
     inkscape:zoom="8.0087438"
     inkscape:cx="26.106553"
     inkscape:cy="24.028607"
     inkscape:window-x="0"
     inkscape:window-y="30"
     inkscape:window-maximized="1"
     inkscape:current-layer="svg2" /><metadata
     id="metadata16"><rdf:RDF><cc:Work
         rdf:about=""><dc:format>image/svg+xml</dc:format><dc:type
           rdf:resource="http://purl.org/dc/dcmitype/StillImage" /><dc:title></dc:title></cc:Work></rdf:RDF></metadata><defs
     id="defs14" /><g
     id="g4"><path
       d="M41.1896502248 21.8564632606C40.637746764 21.2910466996 39.8675000526 20.9923360636 39.080184162 21.0350090116C39.080184162 21.0350090116 29.5513148736 21.5654337552 29.5513148736 21.5654337552C29.5513148736 21.5654337552 34.7953223317 15.5929990747 34.7953223317 15.5929990747C35.5423834081 14.7422427348 35.7558192696 13.6081380201 35.4669945333 12.5947266267C35.3145809873 11.9002955196 34.8940390848 11.2684514028 34.2479706521 10.8647653148C34.2281277312 10.8506121203 21.7127921771 3.58049309116 21.7127921771 3.58049309116C20.690846194 2.9868412629 19.4031188666 3.11763384852 18.5212112746 3.90423852332C18.5212112746 3.90423852332 12.4077425009 9.3575567914 12.4077425009 9.3575567914C11.2813900385 10.3622202305 11.182744407 12.0897634087 12.1874789677 13.2161869927C13.1922846499 14.3424683336 14.9198989497 14.4413984514 16.0461802906 13.4363794044C16.0461802906 13.4363794044 20.681031416 9.30201083742 20.681031416 9.30201083742C20.681031416 9.30201083742 24.5126354169 11.5270494677 24.5126354169 11.5270494677C24.5126354169 11.5270494677 17.7492576452 19.2295165817 17.7492576452 19.2295165817C14.9447203811 19.6868994627 12.4213267227 20.9792496929 10.4408040844 22.8425639673C10.4408040844 22.8425639673 13.9727017472 26.3744616301 13.9727017472 26.3744616301C15.5693100967 24.9227279391 17.6892310317 24.0366241739 20.0122040777 24.0366241739C24.9670311915 24.0366241739 28.9984157107 28.0677953283 28.9984157107 33.0228358069C28.9984157107 35.3458088529 28.1123119455 37.4655875448 26.6607204977 39.0621958942C26.6607204977 39.0621958942 30.1924047957 42.594093557 30.1924047957 42.594093557C32.5451066621 40.0930320747 33.9890169793 36.7277011523 33.9890169793 33.0225513206C33.9890169793 30.8152930853 33.4765859954 28.7279458339 32.565447434 26.871814839C32.565447434 26.871814839 36.2538836944 26.6663445944 36.2538836944 26.6663445944C36.2538836944 26.6663445944 35.3566138411 37.6724090994 35.3566138411 37.6724090994C35.2339291156 39.1767727596 36.3542362438 40.4955802175 37.8586710255 40.6184071862C37.9339887787 40.6245236421 38.0091642888 40.6274396268 38.083628583 40.6274396268C39.4922625965 40.6274396268 40.6881719642 39.5450403008 40.8045268691 38.1164211234C40.8045268691 38.1164211234 41.956198614 23.985985609 41.956198614 23.985985609C42.0204925224 23.1985985968 41.740984713 22.4220931863 41.1898635895 21.8564632606C41.1898635895 21.8564632606 41.1896502248 21.8564632606 41.1896502248 21.8564632606"
       id="path6" /><path
       d="M36.1272161604 10.1491399768C38.6536680467 10.1491399768 40.7015428213 8.10105183754 40.7015428213 5.57445770804C40.7015428213 3.0480058217 38.6536680467 0.9997043177 36.1272161604 0.9997043177C33.6004797877 0.9997043177 31.5524627701 3.0480058217 31.5524627701 5.57445770804C31.5524627701 8.10105183754 33.6004086662 10.1491399768 36.1272161604 10.1491399768C36.1272161604 10.1491399768 36.1272161604 10.1491399768 36.1272161604 10.1491399768"
       id="path8" /><path
       d="M20.0117773482 42.0094741694C15.0568791128 42.0094741694 11.0255657152 37.978303015 11.0255657152 33.0232625364C11.0255657152 31.1558943319 11.5985211637 29.4202432936 12.5772252261 27.9816670949C12.5772252261 27.9816670949 9.00720639638 24.4117193868 9.00720639638 24.4117193868C7.14702147148 26.7855443625 6.0349644466 29.7737886678 6.0349644466 33.0231202932C6.0349644466 40.7426565864 12.2924544197 46.9999331948 20.0117773482 46.9999331948C23.26139346 46.9999331948 26.2493532789 45.88787617 28.6231782546 44.0276201235C28.6231782546 44.0276201235 25.0535861544 40.4573168075 25.0535861544 40.4573168075C23.6150810773 41.4357363835 21.879430039 42.0089051968 20.0122040777 42.0089051968C20.0122040777 42.0089051968 20.0117773482 42.0094741694 20.0117773482 42.0094741694"
       id="path10" /></g></svg>